<svg xmlns="http://www.w3.org/2000/svg" version="1.1" xmlns:xlink="http://www.w3.org/1999/xlink" xmlns:svgjs="http://svgjs.dev/svgjs"  viewBox="0 0 1500 1500"><g transform="matrix(0.6666666666666666,0,0,0.6666666666666666,249.39393939393932,622.2136118725984)"><svg viewBox="0 0 396 101" data-background-color="#ffffff" preserveAspectRatio="xMidYMid meet" height="382" width="1500" xmlns="http://www.w3.org/2000/svg" xmlns:xlink="http://www.w3.org/1999/xlink"><g id="tight-bounds" transform="matrix(1,0,0,1,0.24000000000003752,0.17968010811864588)"><svg viewBox="0 0 395.5199999999999 100.6406397837627" height="100.6406397837627" width="395.5199999999999"><g><svg viewBox="0 0 641.8076040116221 163.30887916113844" height="100.6406397837627" width="395.5199999999999"><g transform="matrix(1,0,0,1,246.28760401162202,50.4648140723304)"><svg viewBox="0 0 395.52 62.37925101647763" height="62.37925101647763" width="395.52"><g id="textblocktransform"><svg viewBox="0 0 395.52 62.37925101647763" height="62.37925101647763" width="395.52" id="textblock"><g><svg viewBox="0 0 395.52 62.37925101647763" height="62.37925101647763" width="395.52"><g transform="matrix(1,0,0,1,0,0)"><svg width="395.52" viewBox="1.75 -36.5 233.63 36.85" height="62.37925101647763" data-palette-color="#528265"><path d="M39.4 0L39.4 0Q37.8 0 36.33-0.9 34.85-1.8 33.95-3.75 33.05-5.7 33.05-8.75L33.05-8.75Q33.05-11.25 33.65-14.38 34.25-17.5 35.23-20.65 36.2-23.8 37.35-26.35L37.35-26.35Q33.9-24.05 31.3-20 28.7-15.95 26.8-10.6L26.8-10.6Q27.2-9 27.45-7.6 27.7-6.2 27.7-5.05L27.7-5.05Q27.7-2.85 26.65-1.6 25.6-0.35 23-0.35L23-0.35Q20.7-0.35 19.63-1.38 18.55-2.4 18.55-4.25L18.55-4.25Q18.55-5.45 18.98-7 19.4-8.55 20.2-10.35L20.2-10.35Q19.3-13 18-16.32 16.7-19.65 14.35-23.6L14.35-23.6Q13.65-20.65 12.93-17.73 12.2-14.8 11.73-12.33 11.25-9.85 11.25-8.15L11.25-8.15Q11.25-5.4 12.75-5.4L12.75-5.4 12.85-5.3Q12.85-3.65 12.03-2.48 11.2-1.3 9.93-0.68 8.65-0.05 7.25-0.05L7.25-0.05Q5.9-0.05 4.63-0.7 3.35-1.35 2.55-2.73 1.75-4.1 1.75-6.25L1.75-6.25Q1.75-8.3 2.48-10.73 3.2-13.15 4.3-15.68 5.4-18.2 6.55-20.63 7.7-23.05 8.63-25.18 9.55-27.3 9.85-28.9L9.85-28.9Q8.85-29.6 7.7-29.6L7.7-29.6Q6.75-29.6 5.78-28.98 4.8-28.35 3.95-26.9L3.95-26.9 3.6-27.05Q3.65-29.6 4.7-31.73 5.75-33.85 7.48-35.13 9.2-36.4 11.25-36.4L11.25-36.4Q13.6-36.4 16.1-34.35 18.6-32.3 20.73-27.6 22.85-22.9 24.15-14.9L24.15-14.9Q26.05-21.05 28.25-25.2 30.45-29.35 32.77-31.8 35.1-34.25 37.38-35.33 39.65-36.4 41.7-36.4L41.7-36.4Q44.25-36.4 46.28-35.15 48.3-33.9 49.48-32 50.65-30.1 50.65-28.2L50.65-28.2Q49.4-28.55 48.18-28.7 46.95-28.85 45.8-28.85L45.8-28.85Q44.65-28.85 43.6-28.7L43.6-28.7Q43.15-26.4 42.65-23.58 42.15-20.75 41.78-17.9 41.4-15.05 41.4-12.65L41.4-12.65Q41.4-10.2 41.9-8.65 42.4-7.1 43.65-7.1L43.65-7.1Q44.45-7.1 45.28-7.8 46.1-8.5 46.5-9.95L46.5-9.95 46.85-9.8Q46.85-6.5 45.75-4.33 44.65-2.15 42.93-1.07 41.2 0 39.4 0ZM62.2 0.35L62.2 0.35Q58.45 0.35 56-1.15 53.55-2.65 52.37-5.13 51.2-7.6 51.2-10.4L51.2-10.4Q51.2-13.05 52.17-15.7 53.15-18.35 55.02-20.53 56.9-22.7 59.6-24.03 62.3-25.35 65.8-25.35L65.8-25.35Q69.55-25.35 71.97-23.83 74.4-22.3 75.57-19.8 76.75-17.3 76.75-14.45L76.75-14.45Q76.75-11.85 75.8-9.22 74.85-6.6 72.97-4.42 71.1-2.25 68.4-0.95 65.7 0.35 62.2 0.35ZM63.55-3.9L63.55-3.9Q64.9-3.9 65.8-5.3 66.7-6.7 67.15-8.88 67.6-11.05 67.6-13.3L67.6-13.3Q67.6-15.3 67.22-17.07 66.85-18.85 66.1-19.98 65.35-21.1 64.15-21.1L64.15-21.1Q62.85-21.1 61.92-19.7 61-18.3 60.55-16.15 60.1-14 60.1-11.7L60.1-11.7Q60.1-9.7 60.47-7.93 60.85-6.15 61.6-5.03 62.35-3.9 63.55-3.9ZM87.1 0.2L87.1 0.2Q84.2 0.2 82.5-1.33 80.8-2.85 80.8-6.05L80.8-6.05Q80.8-7.9 81.27-10 81.75-12.1 82.2-13.75L82.2-13.75Q82.65-15.35 82.92-16.55 83.2-17.75 83.2-18.4L83.2-18.4Q83.2-19.2 82.85-19.55 82.5-19.9 82-19.9L82-19.9Q80.8-19.9 80-18.75L80-18.75 79.8-18.95Q79.85-20.65 80.9-22.08 81.95-23.5 83.6-24.35 85.25-25.2 86.95-25.2L86.95-25.2Q88.85-25.2 90.2-24.08 91.55-22.95 91.45-20.55L91.45-20.55Q91.4-19.5 91.07-17.9 90.75-16.3 90.2-14.1L90.2-14.1Q89.85-12.7 89.47-10.93 89.1-9.15 89.1-7.7L89.1-7.7Q89.1-6.6 89.45-5.95 89.8-5.3 90.6-5.3L90.6-5.3Q91.65-5.3 92.92-6.48 94.2-7.65 95.15-10.33 96.1-13 96.25-17.45L96.25-17.45Q96.4-20.85 95.8-22.4L95.8-22.4 95.8-22.65Q96.25-23.35 97.17-24 98.1-24.65 99.25-25.08 100.4-25.5 101.4-25.5L101.4-25.5Q103-25.5 104.12-23.95 105.25-22.4 105.1-18.55L105.1-18.55Q105-14.85 103.77-11.85 102.55-8.85 100.6-6.6 98.65-4.35 96.32-2.85 94-1.35 91.6-0.58 89.2 0.2 87.1 0.2ZM116.79-26.75L116.79-26.75Q114.79-26.75 113.52-27.98 112.24-29.2 112.24-31.05L112.24-31.05Q112.24-33.05 113.74-34.5 115.24-35.95 117.39-35.95L117.39-35.95Q119.39-35.95 120.67-34.7 121.94-33.45 121.94-31.6L121.94-31.6Q121.94-29.6 120.44-28.18 118.94-26.75 116.79-26.75ZM113.29 0.2L113.29 0.2Q111.34 0.2 109.79-1.18 108.24-2.55 108.24-5.6L108.24-5.6Q108.24-7.35 108.72-8.88 109.19-10.4 109.82-11.85 110.44-13.3 110.92-14.68 111.39-16.05 111.39-17.4L111.39-17.4Q111.39-18.6 110.99-19.13 110.59-19.65 110.04-19.65L110.04-19.65Q109.19-19.65 108.39-18.55L108.39-18.55 108.04-18.75Q108.24-20.75 109.32-22.18 110.39-23.6 111.97-24.4 113.54-25.2 115.09-25.2L115.09-25.2Q116.99-25.2 118.39-23.98 119.79-22.75 119.79-20L119.79-20Q119.79-18.35 119.32-16.53 118.84-14.7 118.22-12.9 117.59-11.1 117.12-9.55 116.64-8 116.64-6.9L116.64-6.9Q116.64-5.95 117.02-5.55 117.39-5.15 117.84-5.15L117.84-5.15Q118.29-5.15 118.72-5.43 119.14-5.7 119.34-6.05L119.34-6.05 119.69-5.95Q119.69-4.1 118.72-2.73 117.74-1.35 116.29-0.58 114.84 0.2 113.29 0.2ZM134.39 0.35L134.39 0.35Q130.74 0.35 128.34-1.13 125.94-2.6 124.74-5.03 123.54-7.45 123.54-10.25L123.54-10.25Q123.54-12.9 124.57-15.58 125.59-18.25 127.57-20.45 129.54-22.65 132.37-24 135.19-25.35 138.74-25.35L138.74-25.35Q143.14-25.35 145.17-23.38 147.19-21.4 147.19-18.6L147.19-18.6Q147.19-16.2 145.92-14.18 144.64-12.15 142.54-10.93 140.44-9.7 137.94-9.7L137.94-9.7Q136.64-9.7 135.29-10.1 133.94-10.5 132.64-11.35L132.64-11.35Q132.89-8.25 134.44-6.85 135.99-5.45 138.14-5.45L138.14-5.45Q139.64-5.45 141.14-6.03 142.64-6.6 143.92-7.53 145.19-8.45 145.89-9.5L145.89-9.5 146.24-9.25Q146.24-6.65 145.17-4.83 144.09-3 142.34-1.85 140.59-0.7 138.52-0.18 136.44 0.35 134.39 0.35ZM135.54-13.15L135.54-13.15Q137.14-13.15 138.14-14.08 139.14-15 139.64-16.25 140.14-17.5 140.14-18.45L140.14-18.45Q140.14-19.6 139.49-20.38 138.84-21.15 137.69-21.15L137.69-21.15Q136.79-21.15 135.72-20.5 134.64-19.85 133.79-18.28 132.94-16.7 132.69-13.9L132.69-13.9Q134.29-13.15 135.54-13.15ZM161.54 0.35L161.54 0.35Q156.99 0.35 154.09-1.35 151.19-3.05 151.19-6.9L151.19-6.9Q151.19-7.3 151.21-7.63 151.24-7.95 151.29-8.15L151.29-8.15Q151.49-9.55 152.14-11.6 152.79-13.65 153.64-15.98 154.49-18.3 155.29-20.55 156.09-22.8 156.64-24.68 157.19-26.55 157.19-27.7L157.19-27.7Q157.19-29 156.34-29L156.34-29Q155.39-29 153.99-27.58 152.59-26.15 151.04-23.6L151.04-23.6 150.74-23.75Q150.74-27.05 152.04-29.45 153.34-31.85 155.49-33.43 157.64-35 160.29-35.75 162.94-36.5 165.64-36.5L165.64-36.5Q168.99-36.5 171.94-35.43 174.89-34.35 176.76-32.35 178.64-30.35 178.64-27.45L178.64-27.45Q178.64-22.25 172.29-19.35L172.29-19.35Q176.04-18.5 177.79-16.5 179.54-14.5 179.54-12.05L179.54-12.05Q179.54-9.9 178.26-7.73 176.99-5.55 174.64-3.73 172.29-1.9 168.96-0.78 165.64 0.35 161.54 0.35ZM163.49-20.85L163.49-20.85Q165.79-20.8 167.51-21.58 169.24-22.35 170.21-23.58 171.19-24.8 171.19-26.1L171.19-26.1Q171.19-27.8 169.39-29.13 167.59-30.45 163.74-30.45L163.74-30.45Q163.94-29.5 164.01-28.55 164.09-27.6 164.09-26.7L164.09-26.7Q164.09-25.25 163.91-23.8 163.74-22.35 163.49-20.85ZM162.94-5.75L162.94-5.75Q165.09-5.75 166.74-6.63 168.39-7.5 169.34-8.88 170.29-10.25 170.29-11.7L170.29-11.7Q170.29-13.7 168.39-15.4 166.49-17.1 162.44-17.5L162.44-17.5Q162.24-15.95 161.61-14.2 160.99-12.45 160.44-10.85 159.89-9.25 159.89-8.05L159.89-8.05Q159.89-7 160.54-6.38 161.19-5.75 162.94-5.75ZM193.49 0.35L193.49 0.35Q189.74 0.35 187.29-1.15 184.84-2.65 183.66-5.13 182.49-7.6 182.49-10.4L182.49-10.4Q182.49-13.05 183.46-15.7 184.44-18.35 186.31-20.53 188.19-22.7 190.89-24.03 193.59-25.35 197.09-25.35L197.09-25.35Q200.84-25.35 203.26-23.83 205.69-22.3 206.86-19.8 208.04-17.3 208.04-14.45L208.04-14.45Q208.04-11.85 207.09-9.22 206.14-6.6 204.26-4.42 202.39-2.25 199.69-0.95 196.99 0.35 193.49 0.35ZM194.84-3.9L194.84-3.9Q196.19-3.9 197.09-5.3 197.99-6.7 198.44-8.88 198.89-11.05 198.89-13.3L198.89-13.3Q198.89-15.3 198.51-17.07 198.14-18.85 197.39-19.98 196.64-21.1 195.44-21.1L195.44-21.1Q194.14-21.1 193.21-19.7 192.29-18.3 191.84-16.15 191.39-14 191.39-11.7L191.39-11.7Q191.39-9.7 191.76-7.93 192.14-6.15 192.89-5.03 193.64-3.9 194.84-3.9ZM212.63 0.35L212.63 0.35Q210.93 0.35 209.88-0.78 208.83-1.9 208.83-3.55L208.83-3.55Q208.83-4.3 209.08-5.1 209.33-5.9 209.83-6.7L209.83-6.7Q210.83-6.55 211.63-6.55L211.63-6.55Q214.08-6.55 215.78-7.73 217.48-8.9 218.48-11.05L218.48-11.05Q216.58-15.25 215.33-16.9 214.08-18.55 213.28-18.55L213.28-18.55Q212.83-18.55 212.48-18.18 212.13-17.8 211.78-17.25L211.78-17.25 211.53-17.35Q211.78-20.8 213.18-23.13 214.58-25.45 216.73-25.45L216.73-25.45Q218.18-25.45 219.38-24.45 220.58-23.45 221.58-21.9 222.58-20.35 223.38-18.68 224.18-17 224.83-15.7L224.83-15.7Q225.93-20.65 228.16-23 230.38-25.35 232.48-25.35L232.48-25.35Q234.03-25.35 234.71-24.3 235.38-23.25 235.38-21.75L235.38-21.75Q235.38-19.15 233.93-16.75L233.93-16.75Q233.58-16.8 233.21-16.82 232.83-16.85 232.43-16.85L232.43-16.85Q230.43-16.85 228.76-15.93 227.08-15 226.03-13.4L226.03-13.4Q227.98-9.75 229.18-8.28 230.38-6.8 231.28-6.8L231.28-6.8Q232.18-6.8 232.63-7.9L232.63-7.9 233.03-7.75Q232.88-5.6 232.23-3.75 231.58-1.9 230.46-0.78 229.33 0.35 227.68 0.35L227.68 0.35Q225.98 0.35 224.56-0.9 223.13-2.15 221.93-4.13 220.73-6.1 219.68-8.35L219.68-8.35Q219.28-5.3 218.13-3.38 216.98-1.45 215.51-0.55 214.03 0.35 212.63 0.35Z" opacity="1" transform="matrix(1,0,0,1,0,0)" fill="#000000" class="wordmark-text-0" data-fill-palette-color="primary" id="text-0"></path></svg></g></svg></g></svg></g></svg></g><g><svg viewBox="0 0 231.56135994865605 163.30887916113844" height="163.30887916113844" width="231.56135994865605"><g><svg xmlns="http://www.w3.org/2000/svg" xmlns:xlink="http://www.w3.org/1999/xlink" version="1.1" x="0" y="0" viewBox="0.5000000000000002 10.9 71.03853870664699 50.1" enable-background="new 0 0 72 72" xml:space="preserve" height="163.30887916113844" width="231.56135994865605" class="icon-icon-0" data-fill-palette-color="accent" id="icon-0"><g fill="#528265" data-fill-palette-color="accent"><path fill="#000000" d="M70.2 10.9H22.8c-0.6 0-1.1 0.4-1.3 1L8.8 59.4c-0.2 0.8 0.4 1.6 1.3 1.6h47.4c0.6 0 1.1-0.4 1.3-1l12.7-47.5C71.7 11.7 71.1 10.9 70.2 10.9zM19.6 53.1l-1 3.7c-0.2 0.6-0.7 1-1.3 1h-3.6c-0.9 0-1.5-0.8-1.3-1.6l1-3.7c0.2-0.6 0.7-1 1.3-1h3.6C19.2 51.4 19.9 52.2 19.6 53.1zM35.2 18.9l1-3.7c0.2-0.6 0.7-1 1.3-1h3.6c0.9 0 1.5 0.8 1.3 1.6l-1 3.7c-0.2 0.6-0.7 1-1.3 1h-3.6C35.6 20.6 34.9 19.8 35.2 18.9zM22.4 18.9l1-3.7c0.2-0.6 0.7-1 1.3-1h3.6c0.9 0 1.5 0.8 1.3 1.6l-1 3.7c-0.2 0.6-0.7 1-1.3 1h-3.6C22.8 20.6 22.2 19.8 22.4 18.9zM32.4 53.1l-1 3.7c-0.2 0.6-0.7 1-1.3 1h-3.6c-0.9 0-1.5-0.8-1.3-1.6l1-3.7c0.2-0.6 0.7-1 1.3-1h3.6C32 51.4 32.6 52.2 32.4 53.1zM45.1 53.1l-1 3.7c-0.2 0.6-0.7 1-1.3 1h-3.6c-0.9 0-1.5-0.8-1.3-1.6l1-3.7c0.2-0.6 0.7-1 1.3-1h3.6C44.7 51.4 45.3 52.2 45.1 53.1zM45.6 37.2l-11.7 9.3c-1.4 1.1-3 0.3-2.6-1.2l5-18.5c0.4-1.5 2.5-2.3 3.2-1.2l6.8 9.3C46.8 35.5 46.5 36.5 45.6 37.2zM47.9 18.9l1-3.7c0.2-0.6 0.7-1 1.3-1h3.6c0.9 0 1.5 0.8 1.3 1.6l-1 3.7c-0.2 0.6-0.7 1-1.3 1h-3.6C48.3 20.6 47.6 19.8 47.9 18.9zM57.8 53.1l-1 3.7c-0.2 0.6-0.7 1-1.3 1h-3.6c-0.9 0-1.5-0.8-1.3-1.6l1-3.7c0.2-0.6 0.7-1 1.3-1h3.6C57.4 51.4 58 52.2 57.8 53.1zM67.8 15.9l-1 3.7c-0.2 0.6-0.7 1-1.3 1h-3.6c-0.9 0-1.5-0.8-1.3-1.6l1-3.7c0.2-0.6 0.7-1 1.3-1h3.6C67.4 14.2 68 15 67.8 15.9z" data-fill-palette-color="accent"></path><path fill="#000000" d="M3.2 24.1h9.4c1 0 1.7-0.8 1.7-1.7 0-1-0.8-1.7-1.7-1.7H3.2c-1 0-1.7 0.8-1.7 1.7C1.5 23.4 2.3 24.1 3.2 24.1z" data-fill-palette-color="accent"></path><path fill="#000000" d="M2.2 33.2h7.4c1 0 1.7-0.8 1.7-1.7 0-1-0.8-1.7-1.7-1.7H2.2c-1 0-1.7 0.8-1.7 1.7C0.5 32.4 1.3 33.2 2.2 33.2z" data-fill-palette-color="accent"></path><path fill="#000000" d="M8.4 38.8H3.2c-1 0-1.7 0.8-1.7 1.7 0 1 0.8 1.7 1.7 1.7h5.2c1 0 1.7-0.8 1.7-1.7C10.1 39.6 9.3 38.8 8.4 38.8z" data-fill-palette-color="accent"></path><path fill="#000000" d="M5 47.9H2.2c-1 0-1.7 0.8-1.7 1.7 0 1 0.8 1.7 1.7 1.7H5c1 0 1.7-0.8 1.7-1.7C6.7 48.6 6 47.9 5 47.9z" data-fill-palette-color="accent"></path></g></svg></g></svg></g></svg></g><defs></defs></svg><rect width="395.5199999999999" height="100.6406397837627" fill="none" stroke="none" visibility="hidden"></rect></g></svg></g></svg>